<?xml version="1.0" encoding="UTF-8" standalone="no"?>
<!-- Created with Inkscape (http://www.inkscape.org/) -->

<svg
   xmlns:dc="http://purl.org/dc/elements/1.1/"
   xmlns:cc="http://creativecommons.org/ns#"
   xmlns:rdf="http://www.w3.org/1999/02/22-rdf-syntax-ns#"
   xmlns:svg="http://www.w3.org/2000/svg"
   xmlns="http://www.w3.org/2000/svg"
   xmlns:sodipodi="http://sodipodi.sourceforge.net/DTD/sodipodi-0.dtd"
   xmlns:inkscape="http://www.inkscape.org/namespaces/inkscape"
   width="250"
   height="50"
   id="svg2"
   version="1.1"
   inkscape:version="0.48.4 r9939"
   sodipodi:docname="coverification-logo.svg"
   inkscape:export-filename="/home/puneet/inkscape/coverification-logo.png"
   inkscape:export-xdpi="90"
   inkscape:export-ydpi="90">
  <defs
     id="defs4" />
  <sodipodi:namedview
     id="base"
     pagecolor="#ffffff"
     bordercolor="#666666"
     borderopacity="1.0"
     inkscape:pageopacity="0.0"
     inkscape:pageshadow="2"
     inkscape:zoom="2.0537398"
     inkscape:cx="127.08208"
     inkscape:cy="20.357704"
     inkscape:document-units="px"
     inkscape:current-layer="layer1"
     showgrid="true"
     fit-margin-top="0"
     fit-margin-left="0"
     fit-margin-right="0"
     fit-margin-bottom="0"
     showborder="true"
     inkscape:window-width="1366"
     inkscape:window-height="744"
     inkscape:window-x="0"
     inkscape:window-y="24"
     inkscape:window-maximized="1"
     showguides="true"
     inkscape:guide-bbox="true"
     borderlayer="false">
    <inkscape:grid
       type="xygrid"
       id="grid3056"
       empspacing="4"
       visible="true"
       enabled="true"
       snapvisiblegridlinesonly="true"
       originx="0px"
       originy="0px" />
  </sodipodi:namedview>
  <metadata
     id="metadata7">
    <rdf:RDF>
      <cc:Work
         rdf:about="">
        <dc:format>image/svg+xml</dc:format>
        <dc:type
           rdf:resource="http://purl.org/dc/dcmitype/StillImage" />
        <dc:title></dc:title>
      </cc:Work>
    </rdf:RDF>
  </metadata>
  <g
     inkscape:label="Layer 1"
     inkscape:groupmode="layer"
     id="layer1"
     transform="translate(-151.35513,-358.01874)">
    <rect
       style="fill:#cccccc;fill-opacity:1;stroke:none"
       id="rect3862"
       width="36"
       height="36"
       x="16"
       y="-116"
       transform="translate(166.35514,391.01873)" />
    <g
       id="g3898-9-8-8"
       transform="translate(-21.41942,-109.72963)">
      <g
         transform="translate(206.11233,387.38874)"
         id="layer1-2-6-4-1"
         inkscape:label="Layer 1">
        <g
           transform="translate(22.971914,-242.75)"
           id="g3784-2-1-9">
          <rect
             transform="translate(-0.0625,0.06249)"
             style="fill:#e6e6e6;fill-opacity:1;stroke:none"
             id="rect3902-7-9-9-0-0-9-9-2-3-2-5-1"
             width="21"
             height="20.999989"
             x="-23.247185"
             y="253.04713" />
        </g>
      </g>
      <path
         style="fill:#0066ff;fill-opacity:1;stroke:#ffffff;stroke-width:2;stroke-linecap:round;stroke-linejoin:round;stroke-miterlimit:4;stroke-opacity:1;stroke-dasharray:none"
         id="path3956-1-3-6-3-1-3-6-0-7-4-4-7-2-5-6-2-4-6"
         d="m 214.77456,408.74836 c 0.96534,3.47396 3,2 6,-4 6.78252,-13.4205 11.12148,-19 16,-19 2,0 2,2 2,2 -1,5 -1,5 -1,5 0,0 -4,2 -11,16 -4,7.99999 -7,11 -11,11 -4,0 -7,-3 -9,-13 0,-1 -1.92499,-1.93446 -2,-4 0,-2 2,-6 5,-6 2,0 2.99999,2 5,12 z"
         sodipodi:nodetypes="ccssccccccc"
         inkscape:connector-curvature="0" />
    </g>
    <g
       id="g4050">
      <g
         id="g3784">
        <rect
           style="fill:#999999;fill-opacity:0;stroke:none"
           id="rect3030-7-1"
           width="120"
           height="40"
           x="166.35515"
           y="471.01874" />
        <g
           transform="matrix(0.8,0,0,0.8,45.271189,185.86749)"
           id="g4000">
          <text
             sodipodi:linespacing="125%"
             id="text4571-9-9-1"
             y="393.06906"
             x="157.61214"
             style="font-size:40px;font-style:normal;font-variant:normal;font-weight:300;font-stretch:normal;line-height:125%;letter-spacing:0px;word-spacing:0px;fill:#000000;fill-opacity:1;stroke:none;font-family:Source Code Pro;-inkscape-font-specification:Source Code Pro Light"
             xml:space="preserve"><tspan
               style="font-style:italic;font-variant:normal;font-weight:bold;font-stretch:normal;font-family:Source Sans Pro;-inkscape-font-specification:Source Sans Pro Bold Italic"
               y="393.06906"
               x="157.61214"
               id="tspan4573-6-4-0"
               sodipodi:role="line"><tspan
                 id="tspan4581-7-4-6"
                 style="fill:#808080">co</tspan><tspan
                 id="tspan4577-7-6-9"
                 style="fill:#ffffff;fill-opacity:0">v</tspan><tspan
                 id="tspan4579-0-9-9"
                 style="fill:#808080">erify</tspan></tspan></text>
          <g
             transform="translate(-11.181983,-25.1993)"
             id="g3898-9-8-8-8-8">
            <g
               inkscape:label="Layer 1"
               id="layer1-2-6-4-1-2-4"
               transform="translate(206.11233,387.38874)">
              <g
                 id="g3784-2-1-9-3-7"
                 transform="translate(22.971914,-242.75)">
                <rect
                   y="253.04713"
                   x="-23.247185"
                   height="20.999989"
                   width="21"
                   id="rect3902-7-9-9-0-0-9-9-2-3-2-5-1-2-8"
                   style="fill:#808080;fill-opacity:0.50196078;stroke:none"
                   transform="translate(-0.0625,0.06249)" />
              </g>
            </g>
            <path
               inkscape:connector-curvature="0"
               sodipodi:nodetypes="ccssccccccc"
               d="m 214.77456,408.74836 c 0.96534,3.47396 3,2 6,-4 6.78252,-13.4205 11.12148,-19 16,-19 2,0 2,2 2,2 -1,5 -1,5 -1,5 0,0 -4,2 -11,16 -4,7.99999 -7,11 -11,11 -4,0 -7,-3 -9,-13 0,-1 -1.92499,-1.93446 -2,-4 0,-2 2,-6 5,-6 2,0 2.99999,2 5,12 z"
               id="path3956-1-3-6-3-1-3-6-0-7-4-4-7-2-5-6-2-4-6-4-7"
               style="fill:#337ab7;fill-opacity:1;stroke:#ffffff;stroke-width:2;stroke-linecap:round;stroke-linejoin:round;stroke-miterlimit:4;stroke-opacity:1;stroke-dasharray:none" />
          </g>
        </g>
      </g>
    </g>
    <g
       id="g3032">
      <g
         transform="translate(1.0879932,0)"
         id="g3795">
        <text
           xml:space="preserve"
           style="font-size:40px;font-style:normal;font-variant:normal;font-weight:300;font-stretch:normal;line-height:125%;letter-spacing:0px;word-spacing:0px;fill:#000000;fill-opacity:1;stroke:none;font-family:Source Code Pro;-inkscape-font-specification:Source Code Pro Light"
           x="157.61214"
           y="393.06906"
           id="text4571-9-9"
           sodipodi:linespacing="125%"><tspan
             sodipodi:role="line"
             id="tspan4573-6-4"
             x="157.61214"
             y="393.06906"
             style="font-style:italic;font-variant:normal;font-weight:bold;font-stretch:normal;font-family:Source Sans Pro;-inkscape-font-specification:Source Sans Pro Bold Italic"><tspan
               style="fill:#808080"
               id="tspan4581-7-4">co</tspan><tspan
               style="fill:#ffffff;fill-opacity:0"
               id="tspan4577-7-6">v</tspan><tspan
               style="fill:#808080"
               id="tspan4579-0-9">erification</tspan></tspan></text>
        <g
           id="g3898-9-8-8-8"
           transform="translate(-11.181983,-25.1993)">
          <g
             transform="translate(206.11233,387.38874)"
             id="layer1-2-6-4-1-2"
             inkscape:label="Layer 1">
            <g
               transform="translate(22.971914,-242.75)"
               id="g3784-2-1-9-3">
              <rect
                 transform="translate(-0.0625,0.06249)"
                 style="fill:#7f7f7f;fill-opacity:0.49803922;stroke:none"
                 id="rect3902-7-9-9-0-0-9-9-2-3-2-5-1-2"
                 width="21"
                 height="20.999989"
                 x="-23.247185"
                 y="253.04713" />
            </g>
          </g>
          <path
             style="fill:#337ab7;fill-opacity:1;stroke:#ffffff;stroke-width:2;stroke-linecap:round;stroke-linejoin:round;stroke-miterlimit:4;stroke-opacity:1;stroke-dasharray:none"
             id="path3956-1-3-6-3-1-3-6-0-7-4-4-7-2-5-6-2-4-6-4"
             d="m 214.77456,408.74836 c 0.96534,3.47396 3,2 6,-4 6.78252,-13.4205 11.12148,-19 16,-19 2,0 2,2 2,2 -1,5 -1,5 -1,5 0,0 -4,2 -11,16 -4,7.99999 -7,11 -11,11 -4,0 -7,-3 -9,-13 0,-1 -1.92499,-1.93446 -2,-4 0,-2 2,-6 5,-6 2,0 2.99999,2 5,12 z"
             sodipodi:nodetypes="ccssccccccc"
             inkscape:connector-curvature="0" />
        </g>
      </g>
      <rect
         transform="translate(151.35513,358.01874)"
         y="0"
         x="0"
         height="50"
         width="250"
         id="rect3017"
         style="fill:#808080;fill-opacity:0;stroke:none" />
    </g>
  </g>
</svg>
